<?xml version="1.0" encoding="UTF-8"?>
<svg width="136px" height="40px" viewBox="0 0 136 40" version="1.1" xmlns="http://www.w3.org/2000/svg" xmlns:xlink="http://www.w3.org/1999/xlink">
    <title>Logo-avec-texte</title>
    <g id="Page-1" stroke="none" stroke-width="1" fill="none" fill-rule="evenodd">
        <g id="Logo-avec-texte" transform="translate(0.245606, 0.100000)" fill="#EDB97B" fill-rule="nonzero">
            <g id="Group" transform="translate(42.754394, 11.900000)">
                <path d="M8.33171913,14.775 L5.10411622,9.375 L2.55205811,9.375 L2.55205811,14.775 L0,14.775 L0,0.225 L6.38014528,0.225 C9.23244552,0.225 11.1840194,2.1 11.1840194,4.8 C11.1840194,7.35 9.45762712,8.775 7.73123487,9.075 L11.3341404,14.775 L8.33171913,14.775 L8.33171913,14.775 Z M8.55690073,4.8 C8.55690073,3.375 7.50605327,2.55 6.07990315,2.55 L2.55205811,2.55 L2.55205811,7.125 L6.07990315,7.125 C7.50605327,7.125 8.55690073,6.15 8.55690073,4.8 Z" id="Shape"></path>
                <path d="M14.6368039,7.5 C14.6368039,3.15 17.7142857,3.55271368e-15 22.0677966,3.55271368e-15 C26.4213075,3.55271368e-15 29.4987893,3.15 29.4987893,7.5 C29.4987893,11.85 26.4213075,15 22.0677966,15 C17.7142857,15 14.6368039,11.85 14.6368039,7.5 Z M26.8716707,7.5 C26.8716707,4.5 24.9951574,2.25 22.0677966,2.25 C19.1404358,2.25 17.2639225,4.5 17.2639225,7.5 C17.2639225,10.5 19.1404358,12.75 22.0677966,12.75 C24.9951574,12.75 26.8716707,10.5 26.8716707,7.5 Z" id="Shape"></path>
                <polygon id="Path" points="36.7046005 14.775 36.7046005 8.775 31.0750605 0.3 34.0024213 0.3 37.9806295 6.525 41.9588378 0.3 44.8861985 0.3 39.2566586 8.775 39.2566586 14.775"></polygon>
                <path d="M56.7457627,14.775 L55.6949153,12 L49.0145278,12 L47.9636804,14.775 L45.0363196,14.775 L50.7409201,0.3 L53.8934625,0.3 L59.598063,14.775 L56.7457627,14.775 Z M52.3171913,2.775 L49.6900726,9.675 L54.9443099,9.675 L52.3171913,2.775 Z" id="Shape"></path>
                <polygon id="Path" points="62.5254237 14.775 62.5254237 0.225 65.0774818 0.225 65.0774818 12.525 71.4576271 12.525 71.4576271 14.775"></polygon>
                <polygon id="Path" points="75.2106538 14.775 75.2106538 0.225 77.7627119 0.225 77.7627119 14.7 75.2106538 14.7"></polygon>
                <path d="M81.440678,12.675 L82.8668281,10.725 C83.842615,11.775 85.4188862,12.75 87.4455206,12.75 C89.5472155,12.75 90.3728814,11.7 90.3728814,10.725 C90.3728814,7.65 81.8910412,9.6 81.8910412,4.275 C81.8910412,1.875 83.9927361,0 87.1452785,0 C89.3970944,0 91.2736077,0.75 92.5496368,2.025 L91.1234867,3.9 C89.9975787,2.775 88.4213075,2.25 86.9200969,2.25 C85.4188862,2.25 84.5181598,3 84.5181598,4.05 C84.5181598,6.75 93,5.1 93,10.5 C93,12.9 91.2736077,15 87.37046,15 C84.7433414,15 82.7917676,14.025 81.440678,12.675 Z" id="Path"></path>
            </g>
            <g id="Path">
                <g transform="translate(8.454394, 27.200000)">
                    <path d="M7.7,3.4 C5.7,3.4 3.6,3.4 1.6,3.4 C0.4,3.4 0,3 0,1.8 C0,0.4 0.4,-7.10542736e-15 1.6,-7.10542736e-15 C5.7,-7.10542736e-15 9.8,-7.10542736e-15 13.9,-7.10542736e-15 C15.4,-7.10542736e-15 16.1,1.2 15.5,2.6 C15.3,3.1 14.8,3.4 14.2,3.4 C12,3.4 9.8,3.4 7.7,3.4 C7.7,3.4 7.7,3.4 7.7,3.4 Z"></path>
                    <path d="M9.3,9.2 C9.4,10.4 8.7,11.3 8,12.1 C7.8,12.3 7.7,12.3 7.5,12.1 C5.9,10.7 5.7,8.4 7.1,6.9 C7.6,6.3 8,6.3 8.4,6.9 C8.9,7.6 9.3,8.3 9.3,9.2 Z"></path>
                    <path d="M2.9,7.8 C2.9,6.4 3.9,5.3 5.2,5.3 C5.8,5.3 6,5.6 5.9,6.1 C5.6,7.8 4.7,8.3 3.2,8.4 C2.9,8.5 2.9,8.4 2.9,7.8 Z"></path>
                    <path d="M10.1,5.3 C11.4,5.3 12.7,7 12.3,8.2 C12.2,8.4 12.1,8.4 12,8.5 C10.7,8.6 9.5,7.5 9.3,6.2 C9.3,5.5 9.5,5.3 10.1,5.3 Z"></path>
                </g>
                <path d="M27.8543939,15.1 C22.1543939,13.7 17.4543939,20.4 16.8543939,21.7 C16.4543939,22.6 16.1543939,22.8 15.9543939,22.8 C15.8543939,22.8 15.5543939,22.6 15.0543939,21.7 C14.4543939,20.4 9.75439395,13.7 4.05439395,15.1 C-1.64560605,16.5 -1.44560605,25.6 5.35439395,26.3 C5.35439395,26.3 6.45439395,26.5 6.15439395,25.4 C5.75439395,24.3 5.55439395,21.9 8.35439395,21.1 C10.3543939,20.5 11.8543939,21.5 13.0543939,22.6 C13.8543939,23.3 14.4543939,24.2 14.8543939,25.2 C15.1543939,25.7 15.5543939,26.3 15.9543939,26.3 C16.4543939,26.3 16.9543939,25.4 17.1543939,24.8 C17.3543939,24.4 17.5543939,24 17.8543939,23.6 C19.1543939,22 20.9543939,20.3 23.5543939,21 C26.4543939,21.8 26.1543939,24.2 25.7543939,25.3 C25.3543939,26.4 26.5543939,26.2 26.5543939,26.2 C33.4543939,25.6 33.6543939,16.5 27.8543939,15.1 Z"></path>
                <path d="M21.1543939,9.1 C20.4543939,3.6 16.5543939,0.3 16.1543939,0.1 C16.0543939,-1.77635684e-15 15.9543939,-1.77635684e-15 15.8543939,-1.77635684e-15 C15.7543939,-1.77635684e-15 15.7543939,-1.77635684e-15 15.5543939,0.1 C15.1543939,0.3 11.2543939,3.5 10.5543939,9.1 C9.85439395,14.6 15.1543939,18.7 15.3543939,19 C15.4543939,19.2 15.6543939,19.2 15.7543939,19.2 C15.8543939,19.2 16.0543939,19.2 16.1543939,19 C16.6543939,18.6 21.8543939,14.6 21.1543939,9.1 Z"></path>
            </g>
        </g>
    </g>
</svg>