<svg xmlns="http://www.w3.org/2000/svg" width="16.788" height="18.653" viewBox="0 0 16.788 18.653">
  <path id="Tracé_383" data-name="Tracé 383" d="M419.525,464.12a.936.936,0,0,0,.933-.932v-9.327a.933.933,0,1,0-1.865,0v9.327A.935.935,0,0,0,419.525,464.12Zm3.731,3.731a.936.936,0,0,0,.933-.933V450.13a.933.933,0,0,0-1.866,0v16.788A.936.936,0,0,0,423.256,467.851ZM415.8,460.39a.935.935,0,0,0,.932-.933v-1.865a.932.932,0,1,0-1.865,0v1.865A.936.936,0,0,0,415.8,460.39Zm11.192,3.73a.936.936,0,0,0,.932-.932v-9.327a.933.933,0,1,0-1.865,0v9.327A.936.936,0,0,0,426.987,464.12Zm2.8-6.528v1.865a.933.933,0,1,0,1.866,0v-1.865a.933.933,0,1,0-1.866,0Z" transform="translate(-414.862 -449.198)" fill="#f9f9f9"/>
</svg>
